<?xml version="1.0" encoding="utf-8"?>
<!-- Generator: Adobe Illustrator 19.0.0, SVG Export Plug-In . SVG Version: 6.00 Build 0)  -->
<svg version="1.1" id="Layer_1" xmlns="http://www.w3.org/2000/svg" xmlns:xlink="http://www.w3.org/1999/xlink" x="0px" y="0px"
	 viewBox="-455 257 48 48" style="enable-background:new -455 257 48 48;" xml:space="preserve">
<style type="text/css">
	.st0{fill:#8E2974;}
	.st1{opacity:0.2;fill:#FFFFFF;enable-background:new    ;}
	.st2{opacity:0.2;}
	.st3{fill:#FFFFFF;}
	.st4{opacity:0.2;enable-background:new    ;}
</style>
<path class="st0" d="M-411,281L-411,281c0-11-9-20-20-20l0,0c-11,0-20,9-20,20l0,0c0,11,9,20,20,20l0,0C-420,301-411,292-411,281z"
	/>
<path class="st1" d="M-431,261c-11.1,0-20,8.9-20,20c0,0.2,0,0.3,0,0.5c0.3-10.8,9.1-19.5,20-19.5s19.7,8.7,20,19.5
	c0-0.2,0-0.3,0-0.5C-411,269.9-419.9,261-431,261z"/>
<g transform="matrix(.99942 0 0 .99942 12 14)" class="st2">
	<g>
		<path d="M-431.3,257.2c0,0-3.6-0.1-7.2,1.7c-1.1,0.5-2.3,1.3-3.3,2.3c-1.6,1.6-4.1,4.6-6.1,7h-4.4l-2,3l3.4,0.9
			c0,0.1,0,0.3,0.1,0.5l-0.5,1.2c0,0-0.2,0.4,1.3,2c1.6,1.6,2.1,1.4,2.1,1.4l1.2-0.6c0.2,0.1,0.3,0.1,0.4,0.1l0.9,3.5l3-2v-4.5
			c2.4-2,5.4-4.4,7-6c1-1,1.8-2.2,2.4-3.3C-431.2,260.8-431.3,257.2-431.3,257.2z M-438.3,266.2c-1.1,0-2-0.9-2-2c0-1.1,0.9-2,2-2
			c1.1,0,2,0.9,2,2C-436.3,265.3-437.2,266.2-438.3,266.2z M-448.8,278.2c0.2,0.1,0.3,0.2,0.5,0.3c-0.2,0.2-0.4,0.5-0.6,0.7
			c-2.3,2.3-6.4,2-6.4,2s-0.3-4.1,2-6.4c0.2-0.2,0.5-0.4,0.7-0.6c0.1,0.2,0.2,0.3,0.3,0.5c-1.5,1.9-1.3,4.8-1.3,4.8
			S-450.7,279.7-448.8,278.2z"/>
	</g>
</g>
<g transform="matrix(.99942 0 0 .99942 12 13)">
	<g>
		<path class="st3" d="M-431.3,257.2c0,0-3.6-0.1-7.2,1.7c-1.1,0.5-2.3,1.3-3.3,2.3c-1.6,1.6-4.1,4.6-6.1,7h-4.4l-2,3l3.4,0.9
			c0,0.1,0,0.3,0.1,0.5l-0.5,1.2c0,0-0.2,0.4,1.3,2c1.6,1.6,2.1,1.4,2.1,1.4l1.2-0.6c0.2,0.1,0.3,0.1,0.4,0.1l0.9,3.5l3-2v-4.5
			c2.4-2,5.4-4.4,7-6c1-1,1.8-2.2,2.4-3.3C-431.2,260.8-431.3,257.2-431.3,257.2z M-438.3,266.2c-1.1,0-2-0.9-2-2c0-1.1,0.9-2,2-2
			c1.1,0,2,0.9,2,2C-436.3,265.3-437.2,266.2-438.3,266.2z M-448.8,278.2c0.2,0.1,0.3,0.2,0.5,0.3c-0.2,0.2-0.4,0.5-0.6,0.7
			c-2.3,2.3-6.4,2-6.4,2s-0.3-4.1,2-6.4c0.2-0.2,0.5-0.4,0.7-0.6c0.1,0.2,0.2,0.3,0.3,0.5c-1.5,1.9-1.3,4.8-1.3,4.8
			S-450.7,279.7-448.8,278.2z"/>
	</g>
</g>
<path class="st4" d="M-451,281.5c0,0.2,0,0.3,0,0.5c0,11.1,8.9,20,20,20s20-8.9,20-20c0-0.2,0-0.3,0-0.5c-0.3,10.8-9.1,19.5-20,19.5
	C-441.9,301-450.7,292.3-451,281.5L-451,281.5z"/>
</svg>
