<?xml version="1.0" encoding="utf-8"?>
<!-- Generator: Adobe Illustrator 19.0.0, SVG Export Plug-In . SVG Version: 6.00 Build 0)  -->
<svg version="1.1" id="Layer_1" xmlns="http://www.w3.org/2000/svg" xmlns:xlink="http://www.w3.org/1999/xlink" x="0px" y="0px"
	 viewBox="-463 265 32 32" style="enable-background:new -463 265 32 32;" xml:space="preserve">
<style type="text/css">
	.st0{fill:#8E2974;}
	.st1{opacity:0.1;fill:#FFFFFF;enable-background:new    ;}
	.st2{opacity:0.2;}
	.st3{fill:#FFFFFF;}
	.st4{opacity:0.2;enable-background:new    ;}
</style>
<path class="st0" d="M-433,281L-433,281c0-7.7-6.3-14-14-14l0,0c-7.7,0-14,6.3-14,14l0,0c0,7.7,6.3,14,14,14l0,0
	C-439.3,295-433,288.7-433,281z"/>
<path class="st1" d="M-447,267c-7.8,0-14,6.2-14,14c0,0.2,0,0.3,0,0.5c0.3-7.5,6.4-13.5,14-13.5c7.6,0,13.7,6,14,13.5
	c0-0.2,0-0.3,0-0.5C-433,273.2-439.2,267-447,267L-447,267z"/>
<g transform="matrix(.66628 0 0 .66628 7.9999 9.0001)" class="st2">
	<g>
		<path d="M-670.9,397.7c0,0-3.6-0.1-7.2,1.7c-1.1,0.5-2.3,1.3-3.3,2.3c-1.6,1.6-4.1,4.6-6.1,7h-4.4l-2,3l3.4,0.9
			c0,0.1,0,0.3,0.1,0.5l-0.5,1.2c0,0-0.2,0.4,1.3,2c1.6,1.6,2.1,1.4,2.1,1.4l1.2-0.6c0.2,0.1,0.3,0.1,0.4,0.1l0.9,3.5l3-2v-4.5
			c2.4-2,5.4-4.4,7-6c1-1,1.8-2.2,2.4-3.3C-670.8,401.3-670.9,397.7-670.9,397.7z M-677.9,406.7c-1.1,0-2-0.9-2-2c0-1.1,0.9-2,2-2
			c1.1,0,2,0.9,2,2C-675.9,405.8-676.8,406.7-677.9,406.7z M-688.4,418.7c0.2,0.1,0.3,0.2,0.5,0.3c-0.2,0.2-0.4,0.5-0.6,0.7
			c-2.3,2.3-6.4,2-6.4,2s-0.3-4.1,2-6.4c0.2-0.2,0.5-0.4,0.7-0.6c0.1,0.2,0.2,0.3,0.3,0.5c-1.5,1.9-1.3,4.8-1.3,4.8
			S-690.3,420.2-688.4,418.7z"/>
	</g>
</g>
<g transform="matrix(.66628 0 0 .66628 7.9999 8)">
	<g>
		<path class="st3" d="M-670.9,397.7c0,0-3.6-0.1-7.2,1.7c-1.1,0.5-2.3,1.3-3.3,2.3c-1.6,1.6-4.1,4.6-6.1,7h-4.4l-2,3l3.4,0.9
			c0,0.1,0,0.3,0.1,0.5l-0.5,1.2c0,0-0.2,0.4,1.3,2c1.6,1.6,2.1,1.4,2.1,1.4l1.2-0.6c0.2,0.1,0.3,0.1,0.4,0.1l0.9,3.5l3-2v-4.5
			c2.4-2,5.4-4.4,7-6c1-1,1.8-2.2,2.4-3.3C-670.8,401.3-670.9,397.7-670.9,397.7z M-677.9,406.7c-1.1,0-2-0.9-2-2c0-1.1,0.9-2,2-2
			c1.1,0,2,0.9,2,2C-675.9,405.8-676.8,406.7-677.9,406.7z M-688.4,418.7c0.2,0.1,0.3,0.2,0.5,0.3c-0.2,0.2-0.4,0.5-0.6,0.7
			c-2.3,2.3-6.4,2-6.4,2s-0.3-4.1,2-6.4c0.2-0.2,0.5-0.4,0.7-0.6c0.1,0.2,0.2,0.3,0.3,0.5c-1.5,1.9-1.3,4.8-1.3,4.8
			S-690.3,420.2-688.4,418.7z"/>
	</g>
</g>
<path class="st4" d="M-461,281.5c0,0.2,0,0.3,0,0.5c0,7.8,6.2,14,14,14s14-6.2,14-14c0-0.2,0-0.3,0-0.5c-0.3,7.5-6.4,13.5-14,13.5
	C-454.6,295-460.7,289-461,281.5L-461,281.5z"/>
</svg>
