<?xml version="1.0" encoding="utf-8"?>
<!-- Generator: Adobe Illustrator 19.0.0, SVG Export Plug-In . SVG Version: 6.00 Build 0)  -->
<svg version="1.1" id="Layer_1" xmlns="http://www.w3.org/2000/svg" xmlns:xlink="http://www.w3.org/1999/xlink" x="0px" y="0px"
	 viewBox="-447 249 64 64" style="enable-background:new -447 249 64 64;" xml:space="preserve">
<style type="text/css">
	.st0{fill:#8E2974;}
	.st1{opacity:0.1;fill:#FFFFFF;enable-background:new    ;}
	.st2{opacity:0.2;}
	.st3{fill:#FFFFFF;}
	.st4{opacity:0.2;enable-background:new    ;}
</style>
<path class="st0" d="M-387,281L-387,281c0-15.5-12.5-28-28-28l0,0c-15.5,0-28,12.5-28,28l0,0c0,15.5,12.5,28,28,28l0,0
	C-399.5,309-387,296.5-387,281z"/>
<path class="st1" d="M-415,253c-15.5,0-28,12.5-28,28c0,0.1,0,0.2,0,0.3c0.4-15.2,12.7-27.3,28-27.3c15.3,0,27.6,12.1,28,27.3
	c0-0.1,0-0.2,0-0.3C-387,265.5-399.5,253-415,253z"/>
<g transform="matrix(1.33256,0,0,1.33256,15.9998,17.000115)" class="st2">
	<g>
		<path d="M-311.4,186.9c0,0-3.6-0.1-7.2,1.7c-1.1,0.5-2.3,1.3-3.3,2.3c-1.6,1.6-4.1,4.6-6.1,7h-4.4l-2,3l3.4,0.9
			c0,0.1,0,0.3,0.1,0.5l-0.5,1.2c0,0-0.2,0.4,1.3,2c1.6,1.6,2.1,1.4,2.1,1.4l1.2-0.6c0.2,0.1,0.3,0.1,0.4,0.1l0.9,3.5l3-2v-4.5
			c2.4-2,5.4-4.4,7-6c1-1,1.8-2.2,2.4-3.3C-311.3,190.5-311.4,186.9-311.4,186.9z M-318.4,195.9c-1.1,0-2-0.9-2-2c0-1.1,0.9-2,2-2
			c1.1,0,2,0.9,2,2C-316.4,195-317.3,195.9-318.4,195.9z M-328.9,207.9c0.2,0.1,0.3,0.2,0.5,0.3c-0.2,0.2-0.4,0.5-0.6,0.7
			c-2.3,2.3-6.4,2-6.4,2s-0.3-4.1,2-6.4c0.2-0.2,0.5-0.4,0.7-0.6c0.1,0.2,0.2,0.3,0.3,0.5c-1.5,1.9-1.3,4.8-1.3,4.8
			S-330.8,209.4-328.9,207.9z"/>
	</g>
</g>
<g transform="matrix(1.33256,0,0,1.33256,15.9998,16)">
	<g>
		<path class="st3" d="M-311.4,186.9c0,0-3.6-0.1-7.2,1.7c-1.1,0.5-2.3,1.3-3.3,2.3c-1.6,1.6-4.1,4.6-6.1,7h-4.4l-2,3l3.4,0.9
			c0,0.1,0,0.3,0.1,0.5l-0.5,1.2c0,0-0.2,0.4,1.3,2c1.6,1.6,2.1,1.4,2.1,1.4l1.2-0.6c0.2,0.1,0.3,0.1,0.4,0.1l0.9,3.5l3-2v-4.5
			c2.4-2,5.4-4.4,7-6c1-1,1.8-2.2,2.4-3.3C-311.3,190.5-311.4,186.9-311.4,186.9z M-318.4,195.9c-1.1,0-2-0.9-2-2c0-1.1,0.9-2,2-2
			c1.1,0,2,0.9,2,2C-316.4,195-317.3,195.9-318.4,195.9z M-328.9,207.9c0.2,0.1,0.3,0.2,0.5,0.3c-0.2,0.2-0.4,0.5-0.6,0.7
			c-2.3,2.3-6.4,2-6.4,2s-0.3-4.1,2-6.4c0.2-0.2,0.5-0.4,0.7-0.6c0.1,0.2,0.2,0.3,0.3,0.5c-1.5,1.9-1.3,4.8-1.3,4.8
			S-330.8,209.4-328.9,207.9z"/>
	</g>
</g>
<path class="st4" d="M-387,281.7c-0.4,15.2-12.7,27.3-28,27.3c-15.3,0-27.6-12.1-28-27.3c0,0.1,0,0.2,0,0.3c0,15.5,12.5,28,28,28
	s28-12.5,28-28C-387,281.9-387,281.8-387,281.7z"/>
</svg>
